<?xml version="1.0" encoding="utf-8" standalone="no"?>
<!DOCTYPE svg PUBLIC "-//W3C//DTD SVG 1.1//EN" "http://www.w3.org/Graphics/SVG/1.1/DTD/svg11.dtd">
<svg version="1.1" width="612pt" height="792pt" viewBox="0 0 612 792" overflow="visible" xmlns="http://www.w3.org/2000/svg">
  <path d="M342.8497,230.1588 C342.9911,228.764 341.4099,227.1827 340.015,227.3241 C338.6202,227.1827 337.039,228.764 337.1804,230.1588 C337.039,231.5536 338.6202,233.1348 340.015,232.9934 C341.4099,233.1348 342.9911,231.5536 342.8497,230.1588 z" stroke="#000000" stroke-width="0.24" fill="none" />
  <path d="M334.3458,573.1824 L342.8497,573.1824 C347.0342,573.6066 351.7779,568.863 351.3536,564.6785 L351.3536,227.3215 C351.7779,223.137 347.0342,218.3933 342.8497,218.8176 L269.1448,218.8649 C264.9617,218.444 260.2228,223.1859 260.6464,227.3688 L260.6464,564.6785 C260.2221,568.863 264.9658,573.6066 269.1503,573.1824 z" stroke="#000000" stroke-width="0.24" fill="none" />
  <path d="M343.1616,561.5604 C343.303,560.1655 341.7218,558.5844 340.3269,558.7257 C338.9321,558.5844 337.3509,560.1655 337.4923,561.5604 C337.3509,562.9552 338.9321,564.5364 340.3269,564.395 C341.7218,564.5364 343.303,562.9552 343.1616,561.5604 z" stroke="#000000" stroke-width="0.24" fill="none" />
</svg>