<?xml version="1.0" encoding="utf-8" standalone="no"?>
<!DOCTYPE svg PUBLIC "-//W3C//DTD SVG 1.1//EN" "http://www.w3.org/Graphics/SVG/1.1/DTD/svg11.dtd">
<svg version="1.1" width="841.92pt" height="595.2pt" viewBox="0 0 841.92 595.2" overflow="visible" xmlns="http://www.w3.org/2000/svg">
  <path d="M281.1627,469.4477 C281.3041,468.0528 279.7228,466.4716 278.328,466.613 C276.9332,466.4716 275.352,468.0528 275.4934,469.4477 C275.352,470.8425 276.9332,472.4237 278.328,472.2823 C279.7228,472.4237 281.3041,470.8425 281.1627,469.4477 z" stroke="#000000" stroke-width="0.24" fill="none" />
  <path d="M447.3438,425.4398 C447.4852,424.0449 445.904,422.4637 444.5092,422.6051 C443.1143,422.4637 441.5331,424.0449 441.6745,425.4398 C441.5331,426.8346 443.1143,428.4158 444.5092,428.2744 C445.904,428.4158 447.4852,426.8346 447.3438,425.4398 z" stroke="#000000" stroke-width="0.24" fill="none" />
  <path d="M447.3438,244.1803 C447.4852,242.7855 445.904,241.2042 444.5092,241.3456 C443.1143,241.2042 441.5331,242.7855 441.6745,244.1803 C441.5331,245.5751 443.1143,247.1563 444.5092,247.0149 C445.904,247.1563 447.4852,245.5751 447.3438,244.1803 z" stroke="#000000" stroke-width="0.24" fill="none" />
  <path d="M281.1627,137.76 C281.3041,136.3651 279.7228,134.7839 278.328,134.9253 C276.9332,134.7839 275.352,136.3651 275.4934,137.76 C275.352,139.1548 276.9332,140.736 278.328,140.5946 C279.7228,140.736 281.3041,139.1548 281.1627,137.76 z" stroke="#000000" stroke-width="0.24" fill="none" />
  <path d="M590.5645,134.9253 C590.9888,130.7408 586.2451,125.9972 582.0606,126.4214" stroke="#000000" stroke-width="0.24" fill="none" />
  <path d="M582.0606,480.7862 C586.2451,481.2104 590.9888,476.4668 590.5645,472.2823" stroke="#000000" stroke-width="0.24" fill="none" />
  <path d="M266.9894,472.2823 C266.5652,476.4668 271.3088,481.2104 275.4934,480.7862" stroke="#000000" stroke-width="0.24" fill="none" />
  <path d="M275.4934,126.4214 C271.3088,125.9972 266.5652,130.7408 266.9894,134.9253" stroke="#000000" stroke-width="0.24" fill="none" />
  <path d="M582.0607,480.7863 L573.5568,480.7863" stroke="#000000" stroke-width="0.24" fill="none" />
  <path d="M590.5646,134.9254 L590.5646,472.2823" stroke="#000000" stroke-width="0.24" fill="none" />
  <path d="M573.5568,126.4214 L582.0607,126.4214" stroke="#000000" stroke-width="0.24" fill="none" />
  <path d="M266.9894,472.2823 L266.9894,134.9254" stroke="#000000" stroke-width="0.24" fill="none" />
  <path d="M275.4934,480.7863 L573.5568,480.7863" stroke="#000000" stroke-width="0.24" fill="none" />
  <path d="M573.5568,126.4214 L275.4935,126.4214" stroke="#000000" stroke-width="0.24" fill="none" />
</svg>