<?xml version="1.0" encoding="utf-8" standalone="no"?>
<!DOCTYPE svg PUBLIC "-//W3C//DTD SVG 1.1//EN" "http://www.w3.org/Graphics/SVG/1.1/DTD/svg11.dtd">
<svg version="1.1" width="841.92pt" height="595.2pt" viewBox="0 0 841.92 595.2" overflow="visible" xmlns="http://www.w3.org/2000/svg">
  <path d="M444.4665,454.4066 C444.6078,453.0117 443.0266,451.4305 441.6317,451.5719 C440.237,451.4305 438.6558,453.0117 438.7971,454.4066 C438.6558,455.8014 440.237,457.3826 441.6317,457.2412 C443.0266,457.3826 444.6078,455.8014 444.4665,454.4066 z" stroke="#000000" stroke-width="0.24" fill="none" />
  <path d="M610.6476,410.3987 C610.7889,409.0038 609.2078,407.4226 607.8129,407.564 C606.418,407.4226 604.8369,409.0038 604.9783,410.3987 C604.8369,411.7935 606.418,413.3747 607.8129,413.2333 C609.2078,413.3747 610.7889,411.7935 610.6476,410.3987 z" stroke="#000000" stroke-width="0.24" fill="none" />
  <path d="M610.6476,229.1392 C610.7889,227.7444 609.2078,226.1631 607.8129,226.3045 C606.418,226.1631 604.8369,227.7444 604.9783,229.1392 C604.8369,230.534 606.418,232.1152 607.8129,231.9738 C609.2078,232.1152 610.7889,230.534 610.6476,229.1392 z" stroke="#000000" stroke-width="0.24" fill="none" />
  <path d="M444.4665,122.7188 C444.6078,121.324 443.0266,119.7428 441.6317,119.8842 C440.237,119.7428 438.6558,121.324 438.7971,122.7188 C438.6558,124.1137 440.237,125.6949 441.6317,125.5535 C443.0266,125.6949 444.6078,124.1137 444.4665,122.7188 z" stroke="#000000" stroke-width="0.24" fill="none" />
  <path d="M753.8682,119.8842 C754.2925,115.6997 749.5488,110.956 745.3644,111.3803" stroke="#000000" stroke-width="0.24" fill="none" />
  <path d="M745.3644,465.7451 C749.5488,466.1693 754.2925,461.4257 753.8682,457.2412" stroke="#000000" stroke-width="0.24" fill="none" />
  <path d="M430.2932,457.2412 C429.869,461.4257 434.6125,466.1693 438.7971,465.7451" stroke="#000000" stroke-width="0.24" fill="none" />
  <path d="M438.7971,111.3803 C434.6125,110.956 429.869,115.6997 430.2932,119.8842" stroke="#000000" stroke-width="0.24" fill="none" />
  <path d="M337.9485,456.3288 C337.5243,460.5133 342.2679,465.2569 346.4525,464.8327" stroke="#000000" stroke-width="0.24" fill="none" />
  <path d="M346.447,110.5151 C342.2638,110.0942 337.5248,114.8362 337.9485,119.0191" stroke="#000000" stroke-width="0.24" fill="none" />
  <path d="M428.6558,118.9718 C429.08,114.7872 424.3364,110.0436 420.1519,110.4678" stroke="#000000" stroke-width="0.24" fill="none" />
  <path d="M420.1519,464.8327 C424.3364,465.2569 429.08,460.5133 428.6558,456.3288" stroke="#000000" stroke-width="0.24" fill="none" />
  <path d="M420.4637,453.2106 C420.605,451.8158 419.0239,450.2346 417.6291,450.376 C416.2343,450.2346 414.653,451.8158 414.7943,453.2106 C414.653,454.6055 416.2343,456.1867 417.6291,456.0453 C419.0239,456.1867 420.605,454.6055 420.4637,453.2106 z" stroke="#000000" stroke-width="0.24" fill="none" />
  <path d="M420.1519,121.8091 C420.2932,120.4142 418.7119,118.833 417.3172,118.9744 C415.9224,118.833 414.3412,120.4142 414.4825,121.8091 C414.3412,123.2039 415.9224,124.7851 417.3172,124.6437 C418.7119,124.7851 420.2932,123.2039 420.1519,121.8091 z" stroke="#000000" stroke-width="0.24" fill="none" />
  <path d="M115.034,454.562 C115.1754,453.1672 113.5942,451.586 112.1993,451.7274 C110.8045,451.586 109.2233,453.1672 109.3647,454.562 C109.2233,455.9569 110.8045,457.5381 112.1993,457.3967 C113.5942,457.5381 115.1754,455.9569 115.034,454.562 z" stroke="#000000" stroke-width="0.24" fill="none" />
  <path d="M281.2151,410.5542 C281.3566,409.1593 279.7753,407.5781 278.3805,407.7195 C276.9857,407.5781 275.4044,409.1593 275.5459,410.5542 C275.4044,411.949 276.9857,413.5302 278.3805,413.3888 C279.7753,413.5302 281.3566,411.949 281.2151,410.5542 z" stroke="#000000" stroke-width="0.24" fill="none" />
  <path d="M281.2151,229.2947 C281.3566,227.8999 279.7753,226.3186 278.3805,226.46 C276.9857,226.3186 275.4044,227.8999 275.5459,229.2947 C275.4044,230.6895 276.9857,232.2707 278.3805,232.1293 C279.7753,232.2707 281.3566,230.6895 281.2151,229.2947 z" stroke="#000000" stroke-width="0.24" fill="none" />
  <path d="M115.034,122.8743 C115.1754,121.4795 113.5942,119.8983 112.1993,120.0397 C110.8045,119.8983 109.2233,121.4795 109.3647,122.8743 C109.2233,124.2692 110.8045,125.8504 112.1993,125.709 C113.5942,125.8504 115.1754,124.2692 115.034,122.8743 z" stroke="#000000" stroke-width="0.24" fill="none" />
  <path d="M100.8608,457.3967 C100.4365,461.5812 105.1802,466.3249 109.3647,465.9006" stroke="#000000" stroke-width="0.24" fill="none" />
  <path d="M109.3647,111.5358 C105.1802,111.1115 100.4365,115.8552 100.8608,120.0397" stroke="#000000" stroke-width="0.24" fill="none" />
  <path d="M285.536,363.6614 L325.2231,363.6614 L325.2231,372.0945 L327.973,372.0945 L327.973,381.4462 L325.2231,381.4462 L325.2231,439.5596 L327.973,439.5596 L327.973,448.9111 L325.2231,448.9111 L325.2231,457.3447 L285.536,457.3447 z" stroke="#000000" stroke-width="0.24" fill="none" />
  <path d="M271.2226,403.3447 L231.5355,403.3447 L231.5355,363.6614 L271.2226,363.6614 z" stroke="#000000" stroke-width="0.24" fill="none" />
  <path d="M217.2225,403.3447 L177.5352,403.3447 L177.5352,363.6614 L217.2225,363.6614 z" stroke="#000000" stroke-width="0.24" fill="none" />
  <path d="M163.2227,403.3447 L123.5352,403.3447 L123.5352,363.6614 L163.2227,363.6614 z" stroke="#000000" stroke-width="0.24" fill="none" />
  <path d="M327.973,264.0945 L327.973,273.4465 L325.2231,273.4465 L325.2231,331.5596 L327.973,331.5596 L327.973,340.9117 L325.2231,340.9117 L325.2231,349.3444 L285.536,349.3444 L285.536,255.6617 L325.2231,255.6617 L325.2231,264.0945 z" stroke="#000000" stroke-width="0.24" fill="none" />
  <path d="M271.2226,349.3444 L231.5355,349.3444 L231.5355,309.6617 L271.2226,309.6617 z" stroke="#000000" stroke-width="0.24" fill="none" />
  <path d="M217.2225,349.3444 L177.5352,349.3444 L177.5352,309.6617 L217.2225,309.6617 z" stroke="#000000" stroke-width="0.24" fill="none" />
  <path d="M163.2227,349.3444 L123.5352,349.3444 L123.5352,309.6617 L163.2227,309.6617 z" stroke="#000000" stroke-width="0.24" fill="none" />
  <path d="M271.2226,295.3444 L231.5355,295.3444 L231.5355,255.6617 L271.2226,255.6617 z" stroke="#000000" stroke-width="0.24" fill="none" />
  <path d="M217.2225,295.3444 L177.5352,295.3444 L177.5352,255.6617 L217.2225,255.6617 z" stroke="#000000" stroke-width="0.24" fill="none" />
  <path d="M163.2227,295.3444 L123.5352,295.3444 L123.5352,255.6617 L163.2227,255.6617 z" stroke="#000000" stroke-width="0.24" fill="none" />
  <path d="M325.2224,241.3445 L285.5356,241.3445 L285.5356,201.6614 L325.2224,201.6614 z" stroke="#000000" stroke-width="0.24" fill="none" />
  <path d="M271.2226,241.3445 L231.5355,241.3445 L231.5355,201.6614 L271.2226,201.6614 z" stroke="#000000" stroke-width="0.24" fill="none" />
  <path d="M217.2225,241.3445 L177.5352,241.3445 L177.5352,201.6614 L217.2225,201.6614 z" stroke="#000000" stroke-width="0.24" fill="none" />
  <path d="M271.2226,173.8481 L231.5355,173.8481 L231.5355,134.1603 L271.2226,134.1603 z" stroke="#000000" stroke-width="0.24" fill="none" />
  <path d="M123.5352,201.6614 L123.5352,241.3445 L163.2227,241.3445 L163.2227,201.6614 z" stroke="#000000" stroke-width="0.24" fill="none" />
  <path d="M109.3632,465.8494 L333.7258,465.8494 L333.7258,111.4845" stroke="#000000" stroke-width="0.24" fill="none" />
  <path d="M745.3644,465.7451 L736.8605,465.7451" stroke="#000000" stroke-width="0.24" fill="none" />
  <path d="M753.8684,119.8843 L753.8684,457.2412" stroke="#000000" stroke-width="0.24" fill="none" />
  <path d="M736.8605,111.3803 L745.3644,111.3803" stroke="#000000" stroke-width="0.24" fill="none" />
  <path d="M430.2932,457.2412 L430.2932,119.8843" stroke="#000000" stroke-width="0.24" fill="none" />
  <path d="M438.7972,465.7451 L736.8605,465.7451" stroke="#000000" stroke-width="0.24" fill="none" />
  <path d="M736.8605,111.3803 L438.7972,111.3803" stroke="#000000" stroke-width="0.24" fill="none" />
  <path d="M346.4525,464.8327 L411.648,464.8327" stroke="#000000" stroke-width="0.24" fill="none" />
  <path d="M337.9485,119.0191 L337.9485,456.3289" stroke="#000000" stroke-width="0.24" fill="none" />
  <path d="M420.1519,110.4679 L346.447,110.5152" stroke="#000000" stroke-width="0.24" fill="none" />
  <path d="M428.6558,456.3288 L428.6558,118.9718" stroke="#000000" stroke-width="0.24" fill="none" />
  <path d="M411.648,464.8327 L420.1519,464.8327" stroke="#000000" stroke-width="0.24" fill="none" />
  <path d="M100.8608,457.3967 L100.8608,120.0398" stroke="#000000" stroke-width="0.24" fill="none" />
  <path d="M333.7258,111.4845 L109.3633,111.4845" stroke="#000000" stroke-width="0.24" fill="none" />
  <path d="M271.2226,417.6611 L271.2226,457.3447" stroke="#000000" stroke-width="0.24" fill="none" />
  <path d="M325.2225,134.1603 L325.2225,173.8481" stroke="#000000" stroke-width="0.24" fill="none" />
  <path d="M190.2229,134.1603 L190.2229,173.8481" stroke="#000000" stroke-width="0.24" fill="none" />
  <path d="M123.5352,457.3405 L123.5352,417.6569" stroke="#000000" stroke-width="0.24" fill="none" />
  <path d="M217.2226,457.3405 L123.5352,457.3405" stroke="#000000" stroke-width="0.24" fill="none" />
  <path d="M217.2226,417.6569 L217.2226,457.3405" stroke="#000000" stroke-width="0.24" fill="none" />
  <path d="M208.7895,417.6569 L217.2226,417.6569" stroke="#000000" stroke-width="0.24" fill="none" />
  <path d="M208.7895,414.9068 L208.7895,417.6569" stroke="#000000" stroke-width="0.24" fill="none" />
  <path d="M199.4337,414.9068 L208.7895,414.9068" stroke="#000000" stroke-width="0.24" fill="none" />
  <path d="M199.4337,417.6569 L199.4337,414.9068" stroke="#000000" stroke-width="0.24" fill="none" />
  <path d="M141.3243,417.6569 L199.4337,417.6569" stroke="#000000" stroke-width="0.24" fill="none" />
  <path d="M141.3243,414.9068 L141.3243,417.6569" stroke="#000000" stroke-width="0.24" fill="none" />
  <path d="M131.9688,414.9068 L141.3243,414.9068" stroke="#000000" stroke-width="0.24" fill="none" />
  <path d="M131.9688,417.6569 L131.9688,414.9068" stroke="#000000" stroke-width="0.24" fill="none" />
  <path d="M123.5352,417.6569 L131.9688,417.6569" stroke="#000000" stroke-width="0.24" fill="none" />
  <path d="M163.2228,241.3445 L163.2228,201.6614" stroke="#000000" stroke-width="0.24" fill="none" />
  <path d="M231.5355,457.3447 L271.2226,457.3447" stroke="#000000" stroke-width="0.24" fill="none" />
  <path d="M231.5355,417.6611 L231.5355,457.3447" stroke="#000000" stroke-width="0.24" fill="none" />
  <path d="M271.2226,417.6611 L231.5355,417.6611" stroke="#000000" stroke-width="0.24" fill="none" />
  <path d="M285.5356,173.8481 L325.2225,173.8481" stroke="#000000" stroke-width="0.24" fill="none" />
  <path d="M285.5356,134.1603 L285.5356,173.8481" stroke="#000000" stroke-width="0.24" fill="none" />
  <path d="M325.2225,134.1603 L285.5356,134.1603" stroke="#000000" stroke-width="0.24" fill="none" />
  <path d="M150.5353,173.8481 L190.2229,173.8481" stroke="#000000" stroke-width="0.24" fill="none" />
  <path d="M150.5353,134.1603 L150.5353,173.8481" stroke="#000000" stroke-width="0.24" fill="none" />
  <path d="M190.2229,134.1603 L150.5353,134.1603" stroke="#000000" stroke-width="0.24" fill="none" />
</svg>