<?xml version="1.0" encoding="utf-8" standalone="no"?>
<!DOCTYPE svg PUBLIC "-//W3C//DTD SVG 1.1//EN" "http://www.w3.org/Graphics/SVG/1.1/DTD/svg11.dtd">
<svg version="1.1" width="841.92pt" height="595.2pt" viewBox="0 0 841.92 595.2" overflow="visible" xmlns="http://www.w3.org/2000/svg">
  <path d="M288.007,474.975 C288.1484,473.5802 286.5672,471.999 285.1724,472.1404 C283.7775,471.999 282.1963,473.5802 282.3377,474.975 C282.1963,476.3699 283.7775,477.951 285.1724,477.8097 C286.5672,477.951 288.1484,476.3699 288.007,474.975 z" stroke="#000000" stroke-width="0.24" fill="none" />
  <path d="M454.1881,430.9672 C454.3296,429.5723 452.7483,427.9911 451.3535,428.1325 C449.9587,427.9911 448.3774,429.5723 448.5189,430.9672 C448.3774,432.362 449.9587,433.9432 451.3535,433.8018 C452.7483,433.9432 454.3296,432.362 454.1881,430.9672 z" stroke="#000000" stroke-width="0.24" fill="none" />
  <path d="M454.1881,249.7077 C454.3296,248.3129 452.7483,246.7316 451.3535,246.873 C449.9587,246.7316 448.3774,248.3129 448.5189,249.7077 C448.3774,251.1025 449.9587,252.6837 451.3535,252.5423 C452.7483,252.6837 454.3296,251.1025 454.1881,249.7077 z" stroke="#000000" stroke-width="0.24" fill="none" />
  <path d="M288.007,143.2873 C288.1484,141.8925 286.5672,140.3112 285.1724,140.4527 C283.7775,140.3112 282.1963,141.8925 282.3377,143.2873 C282.1963,144.6821 283.7775,146.2634 285.1724,146.1219 C286.5672,146.2634 288.1484,144.6821 288.007,143.2873 z" stroke="#000000" stroke-width="0.24" fill="none" />
  <path d="M273.8338,477.8097 C273.4095,481.9942 278.1532,486.7379 282.3377,486.3136" stroke="#000000" stroke-width="0.24" fill="none" />
  <path d="M282.3377,131.9487 C278.1532,131.5245 273.4095,136.2681 273.8338,140.4527" stroke="#000000" stroke-width="0.24" fill="none" />
  <path d="M458.5091,384.0744 L498.1961,384.0744 L498.1961,392.5075 L500.946,392.5075 L500.946,401.8592 L498.1961,401.8592 L498.1961,459.9726 L500.946,459.9726 L500.946,469.3241 L498.1961,469.3241 L498.1961,477.7577 L458.5091,477.7577 z" stroke="#000000" stroke-width="0.24" fill="none" />
  <path d="M444.1956,423.7577 L404.5085,423.7577 L404.5085,384.0744 L444.1956,384.0744 z" stroke="#000000" stroke-width="0.24" fill="none" />
  <path d="M390.1956,423.7577 L350.5082,423.7577 L350.5082,384.0744 L390.1956,384.0744 z" stroke="#000000" stroke-width="0.24" fill="none" />
  <path d="M336.1958,423.7577 L296.5082,423.7577 L296.5082,384.0744 L336.1958,384.0744 z" stroke="#000000" stroke-width="0.24" fill="none" />
  <path d="M500.946,284.5075 L500.946,293.8595 L498.1961,293.8595 L498.1961,351.9726 L500.946,351.9726 L500.946,361.3247 L498.1961,361.3247 L498.1961,369.7574 L458.5091,369.7574 L458.5091,276.0747 L498.1961,276.0747 L498.1961,284.5075 z" stroke="#000000" stroke-width="0.24" fill="none" />
  <path d="M444.1956,369.7574 L404.5085,369.7574 L404.5085,330.0747 L444.1956,330.0747 z" stroke="#000000" stroke-width="0.24" fill="none" />
  <path d="M390.1956,369.7574 L350.5082,369.7574 L350.5082,330.0747 L390.1956,330.0747 z" stroke="#000000" stroke-width="0.24" fill="none" />
  <path d="M336.1958,369.7574 L296.5082,369.7574 L296.5082,330.0747 L336.1958,330.0747 z" stroke="#000000" stroke-width="0.24" fill="none" />
  <path d="M444.1956,315.7574 L404.5085,315.7574 L404.5085,276.0747 L444.1956,276.0747 z" stroke="#000000" stroke-width="0.24" fill="none" />
  <path d="M390.1956,315.7574 L350.5082,315.7574 L350.5082,276.0747 L390.1956,276.0747 z" stroke="#000000" stroke-width="0.24" fill="none" />
  <path d="M336.1958,315.7574 L296.5082,315.7574 L296.5082,276.0747 L336.1958,276.0747 z" stroke="#000000" stroke-width="0.24" fill="none" />
  <path d="M498.1955,261.7575 L458.5086,261.7575 L458.5086,222.0743 L498.1955,222.0743 z" stroke="#000000" stroke-width="0.24" fill="none" />
  <path d="M444.1956,261.7575 L404.5085,261.7575 L404.5085,222.0743 L444.1956,222.0743 z" stroke="#000000" stroke-width="0.24" fill="none" />
  <path d="M390.1956,261.7575 L350.5082,261.7575 L350.5082,222.0743 L390.1956,222.0743 z" stroke="#000000" stroke-width="0.24" fill="none" />
  <path d="M444.1956,194.2611 L404.5085,194.2611 L404.5085,154.5732 L444.1956,154.5732 z" stroke="#000000" stroke-width="0.24" fill="none" />
  <path d="M296.5082,222.0743 L296.5082,261.7575 L336.1958,261.7575 L336.1958,222.0743 z" stroke="#000000" stroke-width="0.24" fill="none" />
  <path d="M282.3363,486.2624 L506.6988,486.2624 L506.6988,131.8975" stroke="#000000" stroke-width="0.24" fill="none" />
  <path d="M273.8338,477.8097 L273.8338,140.4527" stroke="#000000" stroke-width="0.24" fill="none" />
  <path d="M506.6988,131.8975 L282.3363,131.8975" stroke="#000000" stroke-width="0.24" fill="none" />
  <path d="M444.1956,438.0741 L444.1956,477.7577" stroke="#000000" stroke-width="0.24" fill="none" />
  <path d="M498.1955,154.5733 L498.1955,194.2611" stroke="#000000" stroke-width="0.24" fill="none" />
  <path d="M363.1959,154.5733 L363.1959,194.2611" stroke="#000000" stroke-width="0.24" fill="none" />
  <path d="M296.5082,477.7535 L296.5082,438.0699" stroke="#000000" stroke-width="0.24" fill="none" />
  <path d="M390.1956,477.7535 L296.5082,477.7535" stroke="#000000" stroke-width="0.24" fill="none" />
  <path d="M390.1956,438.0699 L390.1956,477.7535" stroke="#000000" stroke-width="0.24" fill="none" />
  <path d="M381.7625,438.0699 L390.1956,438.0699" stroke="#000000" stroke-width="0.24" fill="none" />
  <path d="M381.7625,435.3198 L381.7625,438.0699" stroke="#000000" stroke-width="0.24" fill="none" />
  <path d="M372.4067,435.3198 L381.7625,435.3198" stroke="#000000" stroke-width="0.24" fill="none" />
  <path d="M372.4067,438.0699 L372.4067,435.3198" stroke="#000000" stroke-width="0.24" fill="none" />
  <path d="M314.2974,438.0699 L372.4067,438.0699" stroke="#000000" stroke-width="0.24" fill="none" />
  <path d="M314.2974,435.3198 L314.2974,438.0699" stroke="#000000" stroke-width="0.24" fill="none" />
  <path d="M304.9418,435.3198 L314.2974,435.3198" stroke="#000000" stroke-width="0.24" fill="none" />
  <path d="M304.9418,438.0699 L304.9418,435.3198" stroke="#000000" stroke-width="0.24" fill="none" />
  <path d="M296.5082,438.0699 L304.9418,438.0699" stroke="#000000" stroke-width="0.24" fill="none" />
  <path d="M336.1958,261.7575 L336.1958,222.0744" stroke="#000000" stroke-width="0.24" fill="none" />
  <path d="M404.5085,477.7577 L444.1956,477.7577" stroke="#000000" stroke-width="0.24" fill="none" />
  <path d="M404.5085,438.0741 L404.5085,477.7577" stroke="#000000" stroke-width="0.24" fill="none" />
  <path d="M444.1956,438.0741 L404.5085,438.0741" stroke="#000000" stroke-width="0.24" fill="none" />
  <path d="M458.5086,194.2611 L498.1955,194.2611" stroke="#000000" stroke-width="0.24" fill="none" />
  <path d="M458.5086,154.5733 L458.5086,194.2611" stroke="#000000" stroke-width="0.24" fill="none" />
  <path d="M498.1955,154.5733 L458.5086,154.5733" stroke="#000000" stroke-width="0.24" fill="none" />
  <path d="M323.5083,194.2611 L363.1959,194.2611" stroke="#000000" stroke-width="0.24" fill="none" />
  <path d="M323.5083,154.5733 L323.5083,194.2611" stroke="#000000" stroke-width="0.24" fill="none" />
  <path d="M363.1959,154.5733 L323.5083,154.5733" stroke="#000000" stroke-width="0.24" fill="none" />
</svg>